<svg width="11" height="16" viewBox="0 0 11 16" xmlns="http://www.w3.org/2000/svg">
    <g fill="#FFF" fill-rule="nonzero">
        <path d="M10.347 1.11c0-.151-.072-.3-.222-.416a.914.914 0 0 0-1.068 0L5.433 3.511 1.808.694a.914.914 0 0 0-1.067 0c-.296.23-.296.6 0 .83L4.674 4.58c.205.16.477.247.763.247.291 0 .559-.088.763-.247l3.925-3.056a.52.52 0 0 0 .222-.413zM5.78 3.778v.02-.02z"/>
        <path d="M10.347 6.398c0-.152-.072-.3-.222-.416a.914.914 0 0 0-1.068 0L5.433 8.798 1.808 5.982a.914.914 0 0 0-1.067 0c-.296.23-.296.6 0 .83l3.933 3.056c.423.328 1.109.328 1.526 0l3.934-3.057a.535.535 0 0 0 .213-.413zM5.78 9.064v.02-.02z" opacity=".5"/>
        <path d="M10.347 11.686c0-.152-.072-.3-.222-.417a.914.914 0 0 0-1.068 0l-3.624 2.817-3.625-2.817a.914.914 0 0 0-1.067 0c-.296.23-.296.6 0 .83l3.933 3.056c.423.329 1.109.329 1.526 0l3.934-3.056a.53.53 0 0 0 .213-.413zM5.78 14.352v.02-.02z" opacity=".2"/>
    </g>
</svg>
