<?xml version="1.0" encoding="utf-8"?>
<!-- Generator: Adobe Illustrator 22.0.1, SVG Export Plug-In . SVG Version: 6.00 Build 0)  -->
<svg version="1.1" id="Layer_1" xmlns="http://www.w3.org/2000/svg" xmlns:xlink="http://www.w3.org/1999/xlink" x="0px" y="0px"
	 viewBox="0 0 23 19" style="enable-background:new 0 0 23 19;" xml:space="preserve">
<style type="text/css">
	.st0{fill:#3F434A;}
</style>
<g id="_x36_.-Combo-Bet-Panel---Bet-Slip">
	<g id="_x36_.-Combo-Full-Pop-Up-Key-In" transform="translate(-316.000000, -531.000000)">
		<g id="Group-8" transform="translate(0.000000, 121.000000)">
			<g id="Keyboard-Numberic" transform="translate(0.000000, 354.000000)">
				<g id="_x31_">
					<g transform="translate(281.068777, 7.000000)">
						<path id="Delete" class="st0" d="M42.3,64.4c0.1,0.1,0.2,0.2,0.3,0.3c0.1,0.1,0.2,0.2,0.3,0.3c0,0,0,0,0.1,0.1c0,0,0,0,0,0.1
							c0.2,0.2,0.4,0.4,0.7,0.5c0.3,0.1,0.5,0.2,0.8,0.3c0.3,0.1,0.7,0.1,1,0.1c0.1,0,0.1,0,0.2,0c0.1,0,0.2,0,0.3,0H52v1.4l0-0.7
							V66h0.6c0.1,0,0.2,0,0.5,0c0.3,0,0.7,0,1-0.1c0.3,0,0.6-0.1,0.8-0.3c0.3-0.1,0.5-0.3,0.7-0.5c0.2-0.2,0.4-0.4,0.5-0.7
							c0.1-0.3,0.2-0.6,0.3-0.8c0.1-0.3,0.1-0.7,0.1-1c0-0.2,0-0.3,0-0.5V55c0-0.1,0-0.1,0-0.3c0-0.1,0-0.1,0-0.1c0-0.2,0-0.3,0-0.4
							c0-0.3,0-0.7-0.1-1c-0.1-0.3-0.1-0.6-0.3-0.8c-0.1-0.3-0.3-0.5-0.5-0.7c-0.2-0.2-0.4-0.4-0.7-0.5c-0.3-0.1-0.5-0.2-0.8-0.3
							c-0.3-0.1-0.7-0.1-1-0.1c-0.2,0-0.3,0-0.5,0h-6.5c-0.1,0-0.2,0-0.3,0c-0.1,0-0.1,0-0.2,0c-0.3,0-0.7,0-1,0.1
							c-0.3,0-0.6,0.1-0.8,0.3c-0.3,0.1-0.5,0.3-0.7,0.5c-0.1,0.1-0.1,0.1-0.1,0.1c-0.1,0.1-0.2,0.2-0.3,0.3
							c-0.2,0.1-0.2,0.2-0.3,0.3L40,54.8c0,0-0.1,0-0.1,0.1c0,0,0,0-0.1,0.1c-0.1,0.1-0.2,0.2-0.2,0.2l-2.1,2.1c0,0,0,0,0,0
							c0,0,0,0,0,0c0,0.1-0.1,0.1-0.1,0.1c-0.1,0.1-0.1,0.1-0.1,0.1c-0.2,0.2-0.3,0.3-0.4,0.5l-0.1,0.1c0,0-0.1,0.1-0.1,0.1
							c0,0.2,0,0.3,0,0.5c0,0,0.1,0.1,0.1,0.1c0.2,0.2,0.3,0.3,0.5,0.5c0,0,0,0,0,0c0,0,0,0,0,0c0,0,0.1,0.1,0.1,0.1
							c0,0,0.1,0.1,0.1,0.1c0,0,0.1,0.1,0.1,0.1l2.1,2.1l0.2,0.2L40,62c0,0,0,0,0.1,0.1L42.3,64.4z M53.1,49.4c0.4,0,0.8,0,1.2,0.1
							c0.4,0.1,0.8,0.2,1.2,0.4c0.4,0.2,0.7,0.5,1.1,0.8c0.3,0.3,0.6,0.7,0.8,1.1c0.2,0.4,0.3,0.8,0.4,1.2c0.1,0.4,0.1,0.8,0.1,1.2
							c0,0.1,0,0.2,0,0.4c0,0,0,0.1,0,0.1l0,7.5c0,0.2,0,0.3,0,0.5c0,0.4,0,0.8-0.1,1.2c-0.1,0.4-0.2,0.8-0.4,1.2
							c-0.2,0.4-0.5,0.7-0.8,1.1c-0.3,0.3-0.7,0.6-1.1,0.8c-0.4,0.2-0.8,0.3-1.2,0.4c-0.4,0.1-0.8,0.1-1.2,0.1c-0.3,0-0.4,0-0.5,0
							H52v-0.7l0-0.6l0,1.3h-5.9c-0.1,0-0.2,0-0.3,0c-0.1,0-0.1,0-0.2,0c-0.4,0-0.8,0-1.2-0.1c-0.4-0.1-0.8-0.2-1.2-0.4
							c-0.4-0.2-0.7-0.5-1-0.8l0,0c0,0,0,0-0.1-0.1c0,0,0,0,0,0c-0.1-0.1-0.2-0.2-0.3-0.3c-0.1-0.1-0.2-0.2-0.3-0.3l-2.2-2.2
							L39,63.1l-0.2-0.2l-0.2-0.2l-2.1-2.1l-0.1-0.1l0,0c0,0-0.1-0.1-0.1-0.1c0,0,0,0-0.1-0.1c-0.1-0.1-0.1-0.1-0.1-0.1
							c-0.2-0.2-0.3-0.4-0.5-0.5c-0.1-0.2-0.3-0.3-0.3-0.5l0-0.1c-0.2-0.5-0.2-1,0-1.4l0-0.1c0.1-0.2,0.2-0.4,0.3-0.5
							c0.1-0.2,0.3-0.4,0.5-0.5c0,0,0.1-0.1,0.1-0.1l0.1-0.1c0,0,0,0,0,0c0,0,0,0,0,0l0.1-0.1l0,0l2.1-2.1c0.1-0.1,0.1-0.1,0.2-0.2
							c0.1-0.1,0.1-0.1,0.1-0.1c0,0,0.1-0.1,0.1-0.1l2.3-2.3c0.1-0.1,0.2-0.2,0.3-0.3c0.1-0.1,0.2-0.2,0.3-0.3
							c0.1-0.1,0.1-0.1,0.1-0.1c0.3-0.3,0.7-0.6,1.1-0.8c0.4-0.2,0.8-0.3,1.2-0.4c0.4-0.1,0.8-0.1,1.2-0.1c0.1,0,0.1,0,0.2,0
							c0.1,0,0.2,0,0.2,0l6.6,0C52.7,49.4,52.8,49.4,53.1,49.4z M52.4,54.9c-0.2-0.2-0.6-0.2-0.8,0c0,0,0,0-0.1,0.1l-2.6,2.6
							L46.2,55c0,0,0,0,0,0l-0.1-0.1c-0.1-0.1-0.3-0.2-0.4-0.2c-0.2,0-0.3,0.1-0.4,0.2c-0.2,0.2-0.2,0.6,0,0.8l0,0l0,0l2.7,2.7
							L45.4,61c0,0,0,0,0,0l-0.1,0.1c-0.2,0.2-0.2,0.6,0,0.8c0.2,0.2,0.6,0.2,0.8,0l0,0l0,0l2.7-2.7l2.7,2.7c0.2,0.2,0.6,0.2,0.8,0
							c0.2-0.2,0.2-0.6,0-0.8c0,0-0.1,0-0.1-0.1l-2.6-2.6l2.7-2.7C52.6,55.5,52.6,55.1,52.4,54.9z"/>
					</g>
				</g>
			</g>
		</g>
	</g>
</g>
</svg>
