<svg width="55" height="55" viewBox="0 0 55 55" xmlns="http://www.w3.org/2000/svg">
    <g fill="none" fill-rule="evenodd">
        <path d="M27.5 55C12.312 55 0 42.688 0 27.5S12.312 0 27.5 0 55 12.312 55 27.5 42.688 55 27.5 55z" fill="#2F8AF2"/>
        <path d="M43.59 18.744a1.78 1.78 0 0 0-2.518 0L23.807 36.009l-9.826-9.825a1.741 1.741 0 0 0-2.464 0 1.741 1.741 0 0 0 0 2.464L22.21 39.34c.083.166.173.331.313.47a1.78 1.78 0 0 0 2.516 0l18.55-18.55a1.78 1.78 0 0 0 0-2.517z" fill="#FFF"/>
    </g>
</svg>
