<?xml version="1.0" encoding="utf-8"?>
<!-- Generator: Adobe Illustrator 22.0.1, SVG Export Plug-In . SVG Version: 6.00 Build 0)  -->
<svg version="1.1" id="Layer_1" xmlns="http://www.w3.org/2000/svg" xmlns:xlink="http://www.w3.org/1999/xlink" x="0px" y="0px"
	 viewBox="0 0 27 21" style="enable-background:new 0 0 27 21;" xml:space="preserve">
<g id="_x36_.-Combo-Bet-Panel---Bet-Slip">
	<g id="_x36_.-Combo-Full-Pop-Up-Key-In" transform="translate(-224.000000, -678.000000)">
		<g id="Group-8" transform="translate(0.000000, 121.000000)">
			<g id="Keyboard-Numberic" transform="translate(0.000000, 354.000000)">
				<g id="_x31_">
					<g transform="translate(188.067843, 183.965803)">
						<g id="键盘" transform="translate(36.277418, 20.520750)">
							<path id="形状" d="M3.3,1.1c-1,0-1.8,0.7-1.8,1.6v9.9c0,0.9,0.8,1.6,1.8,1.6h18c1,0,1.8-0.7,1.8-1.6V2.7
								c0-0.9-0.8-1.6-1.8-1.6L3.3,1.1L3.3,1.1z M3.3,0h18c1.7,0,3,1.2,3,2.7v9.9c0,1.5-1.3,2.7-3,2.7h-18c-1.7,0-3-1.2-3-2.7V2.7
								C0.3,1.2,1.7,0,3.3,0z M12.4,18.6l-3.6-2.2H16L12.4,18.6z"/>
							<g id="分组" transform="translate(5.352926, 3.000000)">
								<path id="路径" d="M1.7,0.3h10.4c0.5,0,0.8,0.4,0.8,0.8s-0.4,0.8-0.8,0.8H1.7c-0.5,0-0.8-0.4-0.8-0.8S1.3,0.3,1.7,0.3z"/>
								<path id="路径_1_" d="M0.1,8.2c0,0.6,0.5,1.1,1.1,1.1s1.1-0.5,1.1-1.1c0-0.4-0.2-0.8-0.5-0.9S1,7.1,0.7,7.3
									S0.1,7.8,0.1,8.2L0.1,8.2z"/>
								<path id="路径_2_" d="M0.1,4.9C0.1,5.5,0.6,6,1.2,6s1.1-0.5,1.1-1.1c0-0.4-0.2-0.8-0.5-0.9S1,3.8,0.7,4S0.1,4.5,0.1,4.9
									L0.1,4.9z"/>
								<path id="路径_3_" d="M3.9,8.2c0,0.6,0.5,1.1,1.1,1.1s1.1-0.5,1.1-1.1S5.6,7.1,5,7.1S3.9,7.6,3.9,8.2z"/>
								<path id="路径_4_" d="M11.6,4.9c0,0.6,0.5,1.1,1.1,1.1c0.6,0,1.1-0.5,1.1-1.1s-0.5-1.1-1.1-1.1
									C12.1,3.8,11.6,4.3,11.6,4.9L11.6,4.9z"/>
								<path id="路径_5_" d="M7.8,4.9C7.8,5.5,8.3,6,8.9,6S10,5.5,10,4.9S9.5,3.8,8.9,3.8S7.8,4.3,7.8,4.9L7.8,4.9z"/>
								<path id="路径_6_" d="M3.9,4.9C3.9,5.5,4.4,6,5,6s1.1-0.5,1.1-1.1S5.6,3.8,5,3.8S3.9,4.3,3.9,4.9L3.9,4.9z"/>
								<path id="路径_7_" d="M11.6,8.2c0,0.6,0.5,1.1,1.1,1.1c0.6,0,1.1-0.5,1.1-1.1s-0.5-1.1-1.1-1.1
									C12.1,7.1,11.6,7.6,11.6,8.2z"/>
								<path id="路径_8_" d="M7.8,8.2c0,0.6,0.5,1.1,1.1,1.1S10,8.8,10,8.2S9.5,7.1,8.9,7.1S7.8,7.6,7.8,8.2z"/>
							</g>
						</g>
					</g>
				</g>
			</g>
		</g>
	</g>
</g>
</svg>
