<svg width="21" height="21" viewBox="0 0 21 21" xmlns="http://www.w3.org/2000/svg">
    <path d="M10.498.01c1.44 0 2.796.274 4.07.82a10.53 10.53 0 0 1 3.334 2.242c.949.949 1.696 2.06 2.242 3.334.546 1.273.819 2.63.819 4.07 0 1.455-.273 2.815-.819 4.08a10.567 10.567 0 0 1-2.242 3.323 10.53 10.53 0 0 1-3.334 2.242c-1.274.546-2.63.819-4.07.819a10.28 10.28 0 0 1-4.093-.82 10.53 10.53 0 0 1-3.334-2.241A10.567 10.567 0 0 1 .83 14.557C.283 13.29.01 11.93.01 10.475c0-1.44.273-2.796.819-4.07A10.53 10.53 0 0 1 3.07 3.073 10.53 10.53 0 0 1 6.405.829a10.28 10.28 0 0 1 4.093-.818zm5.98 11.913a1.4 1.4 0 0 0 1.044-.44 1.46 1.46 0 0 0 .427-1.055c0-.412-.142-.76-.427-1.044a1.42 1.42 0 0 0-1.044-.427h-4.461V4.495a1.44 1.44 0 0 0-.439-1.055A1.44 1.44 0 0 0 10.522 3a1.4 1.4 0 0 0-1.044.44 1.46 1.46 0 0 0-.427 1.055v4.462H4.59c-.411 0-.76.142-1.044.427a1.42 1.42 0 0 0-.427 1.044c0 .411.142.763.427 1.056a1.4 1.4 0 0 0 1.044.439h4.46v4.437c0 .411.143.763.428 1.056a1.4 1.4 0 0 0 1.044.439 1.44 1.44 0 0 0 1.056-.44 1.44 1.44 0 0 0 .439-1.055v-4.437h4.461z" fill="#485257" fill-rule="nonzero"/>
</svg>
