<svg width="21" height="21" viewBox="0 0 21 21" xmlns="http://www.w3.org/2000/svg">
    <path d="M3.93 5.86v11.421c0 1.125.994 2.037 2.213 2.037h8.649c1.222 0 2.213-.915 2.213-2.037V5.86h1.503v11.421c.002 1.885-1.666 3.419-3.714 3.419h-8.65c-2.05 0-3.717-1.534-3.717-3.419V5.86H3.93zm3.012 2.681c.443 0 .801.33.801.738v6.616c0 .405-.36.734-.801.734-.443 0-.801-.329-.801-.737V9.28c0-.408.358-.738.8-.738zm3.408 0c.443 0 .801.33.801.738v6.616c0 .405-.358.734-.801.734-.443 0-.802-.329-.802-.737V9.28c0-.408.359-.738.802-.738zm3.658 0c.443 0 .801.33.801.738v6.616c0 .405-.36.734-.801.734-.443 0-.801-.329-.801-.737V9.28c0-.408.358-.738.801-.738zM10.502.2c2.657 0 4.84 1.897 5.032 4.298h3.732c.406 0 .734.302.734.676.002.373-.326.674-.731.674H1.734c-.406 0-.734-.301-.734-.674 0-.374.328-.675.734-.675l3.737-.001C5.663 2.098 7.846.2 10.502.2zm0 1.382c-1.826 0-3.336 1.28-3.523 2.916h7.047c-.187-1.636-1.697-2.916-3.524-2.916z" fill="#87959D" fill-rule="nonzero" stroke="#87959D" stroke-width=".2"/>
</svg>
